<?xml version="1.0" encoding="UTF-8" standalone="no"?>
<!-- Created with Bouml (http://bouml.free.fr/) -->
<!DOCTYPE svg PUBLIC "-//W3C//DTD SVG 1.1//EN" "http://www.w3.org/Graphics/SVG/1.1/DTD/svg11.dtd">
<svg width="1161" height="731" version="1.1" xmlns="http://www.w3.org/2000/svg">
<g>
	<line stroke-dasharray="4,4" stroke="black" stroke-opacity="1" x1="334" y1="136" x2="334" y2="104" />
	<line stroke="black" stroke-opacity="1" x1="334" y1="98" x2="328" y2="104" />
	<line stroke="black" stroke-opacity="1" x1="334" y1="98" x2="340" y2="104" />
	<line stroke="black" stroke-opacity="1" x1="328" y1="104" x2="340" y2="104" />
</g>
<g>
	<line stroke="black" stroke-opacity="1" x1="428" y1="226" x2="419" y2="223" />
	<line stroke="black" stroke-opacity="1" x1="428" y1="226" x2="425" y2="234" />
	<line stroke="black" stroke-opacity="1" x1="152" y1="361" x2="428" y2="226" />
</g>
<g>
	<line stroke-dasharray="4,4" stroke="black" stroke-opacity="1" x1="766" y1="345" x2="681" y2="223" />
	<line stroke="black" stroke-opacity="1" x1="678" y1="219" x2="676" y2="227" />
	<line stroke="black" stroke-opacity="1" x1="678" y1="219" x2="686" y2="220" />
	<line stroke="black" stroke-opacity="1" x1="676" y1="227" x2="686" y2="220" />
</g>
<g>
	<rect fill="none" stroke="black" stroke-width="1" stroke-opacity="1" x="30" y="285" width="65" height="22" />
	<rect fill="none" stroke="black" stroke-width="1" stroke-opacity="1" x="30" y="307" width="164" height="102" />
	<text font-family="Helvetica" font-size="9" fill="black" text-anchor="middle" x="112" y="319">ClienteConsola</text>
	<text font-family="Helvetica" font-size="9" fill="black" text-anchor="middle" x="112" y="341">&lt;&lt;C#&gt;&gt;</text>
</g>
<g>
	<rect fill="none" stroke="black" stroke-width="1" stroke-opacity="1" x="38" y="133" width="61" height="22" />
	<rect fill="none" stroke="black" stroke-width="1" stroke-opacity="1" x="38" y="155" width="154" height="94" />
	<text font-family="Helvetica" font-size="9" fill="black" text-anchor="middle" x="115" y="167">BigBrother</text>
	<text font-family="Helvetica" font-size="9" fill="black" text-anchor="middle" x="115" y="189">&lt;&lt;C#&gt;&gt;</text>
</g>
<g>
	<rect fill="none" stroke="black" stroke-width="1" stroke-opacity="1" x="30" y="484" width="158" height="22" />
	<rect fill="none" stroke="black" stroke-width="1" stroke-opacity="1" x="30" y="506" width="398" height="213" />
	<text font-family="Helvetica" font-size="9" fill="black" text-anchor="middle" x="229" y="518">ClienteRepresentado</text>
	<text font-family="Helvetica" font-size="9" fill="black" text-anchor="middle" x="229" y="540">&lt;&lt;Boo&gt;&gt;</text>
</g>
<g>
	<rect fill="none" stroke="black" stroke-width="1" stroke-opacity="1" x="334" y="353" width="98" height="22" />
	<rect fill="none" stroke="black" stroke-width="1" stroke-opacity="1" x="334" y="375" width="248" height="101" />
	<text font-family="Helvetica" font-size="9" fill="black" text-anchor="middle" x="458" y="387">ClienteConsolaVB.NET</text>
	<text font-family="Helvetica" font-size="9" fill="black" text-anchor="middle" x="458" y="409">&lt;&lt;VB.NET&gt;&gt;</text>
</g>
<g>
	<rect fill="none" stroke="black" stroke-width="1" stroke-opacity="1" x="673" y="507" width="124" height="22" />
	<rect fill="none" stroke="black" stroke-width="1" stroke-opacity="1" x="673" y="529" width="312" height="178" />
	<text font-family="Helvetica" font-size="9" fill="black" text-anchor="middle" x="829" y="541">GtkGUI</text>
	<text font-family="Helvetica" font-size="9" fill="black" text-anchor="middle" x="829" y="563">&lt;&lt;C#&gt;&gt;</text>
</g>
<g>
	<rect fill="none" stroke="black" stroke-width="1" stroke-opacity="1" x="813" y="30" width="66" height="22" />
	<rect fill="none" stroke="black" stroke-width="1" stroke-opacity="1" x="813" y="52" width="168" height="72" />
	<text font-family="Helvetica" font-size="9" fill="black" text-anchor="middle" x="897" y="64">GTK/GLADE/GDK/ATK/GLIB#</text>
</g>
<g>
	<rect fill="none" stroke="black" stroke-width="1" stroke-opacity="1" x="482" y="550" width="54" height="22" />
	<rect fill="none" stroke="black" stroke-width="1" stroke-opacity="1" x="482" y="572" width="138" height="121" />
	<text font-family="Helvetica" font-size="9" fill="black" text-anchor="middle" x="551" y="584">WSMensajeroFacade</text>
	<text font-family="Helvetica" font-size="9" fill="black" text-anchor="middle" x="551" y="606">&lt;&lt;Boo&gt;&gt;</text>
</g>
<g>
	<rect fill="none" stroke="black" stroke-width="1" stroke-opacity="1" x="867" y="137" width="73" height="22" />
	<rect fill="none" stroke="black" stroke-width="1" stroke-opacity="1" x="867" y="159" width="184" height="103" />
	<text font-family="Helvetica" font-size="9" fill="black" text-anchor="middle" x="959" y="171">NickInputEnBoo</text>
	<text font-family="Helvetica" font-size="9" fill="black" text-anchor="middle" x="959" y="193">&lt;&lt;Boo&gt;&gt;</text>
</g>
<g>
	<rect fill="none" stroke="black" stroke-width="1" stroke-opacity="1" x="285" y="17" width="186" height="22" />
	<rect fill="none" stroke="black" stroke-width="1" stroke-opacity="1" x="285" y="39" width="467" height="209" />
	<text font-family="Helvetica" font-size="9" fill="black" text-anchor="middle" x="519" y="51">ControladorConexiones</text>
	<text font-family="Helvetica" font-size="9" fill="black" text-anchor="middle" x="519" y="73">&lt;&lt;C#&gt;&gt;</text>
</g>
<g>
	<line stroke="black" stroke-opacity="1" x1="1023" y1="439" x2="967" y2="258" />
	<line stroke="black" stroke-opacity="1" x1="966" y1="253" x2="962" y2="260" />
	<line stroke="black" stroke-opacity="1" x1="966" y1="253" x2="973" y2="256" />
	<line stroke="black" stroke-opacity="1" x1="962" y1="260" x2="973" y2="256" />
</g>
<g>
	<line stroke="black" stroke-opacity="1" x1="176" y1="583" x2="179" y2="590" />
	<line stroke="black" stroke-opacity="1" x1="176" y1="583" x2="183" y2="579" />
	<line stroke="black" stroke-opacity="1" x1="261" y1="613" x2="176" y2="583" />
</g>
<g>
	<line stroke="black" stroke-opacity="1" x1="417" y1="206" x2="410" y2="200" />
	<line stroke="black" stroke-opacity="1" x1="417" y1="206" x2="411" y2="212" />
	<line stroke="black" stroke-opacity="1" x1="142" y1="220" x2="417" y2="206" />
</g>
<g>
	<line stroke-dasharray="4,4" stroke="black" stroke-opacity="1" x1="780" y1="345" x2="778" y2="101" />
</g>
<g>
	<line stroke="black" stroke-opacity="1" x1="405" y1="640" x2="410" y2="646" />
	<line stroke="black" stroke-opacity="1" x1="405" y1="640" x2="411" y2="634" />
	<line stroke-dasharray="4,4" stroke="black" stroke-opacity="1" x1="496" y1="647" x2="405" y2="640" />
</g>
<g>
	<line stroke="black" stroke-opacity="1" x1="453" y1="226" x2="444" y2="225" />
	<line stroke="black" stroke-opacity="1" x1="453" y1="226" x2="452" y2="234" />
	<line stroke="black" stroke-opacity="1" x1="130" y1="540" x2="453" y2="226" />
</g>
<g>
	<line stroke="black" stroke-opacity="1" x1="480" y1="226" x2="474" y2="232" />
	<line stroke="black" stroke-opacity="1" x1="480" y1="226" x2="486" y2="231" />
	<line stroke="black" stroke-opacity="1" x1="503" y1="425" x2="480" y2="226" />
</g>
<g>
	<line stroke="black" stroke-opacity="1" x1="880" y1="612" x2="874" y2="605" />
	<line stroke="black" stroke-opacity="1" x1="880" y1="612" x2="873" y2="617" />
	<line stroke="black" stroke-opacity="1" x1="788" y1="610" x2="880" y2="612" />
</g>
<g>
	<line stroke="black" stroke-opacity="1" x1="928" y1="592" x2="1007" y2="486" />
	<line stroke="black" stroke-opacity="1" x1="1011" y1="482" x2="1002" y2="483" />
	<line stroke="black" stroke-opacity="1" x1="1011" y1="482" x2="1012" y2="490" />
	<line stroke="black" stroke-opacity="1" x1="1002" y1="483" x2="1012" y2="490" />
</g>
<g>
	<line stroke="black" stroke-opacity="1" x1="585" y1="121" x2="576" y2="119" />
	<line stroke="black" stroke-opacity="1" x1="585" y1="121" x2="583" y2="129" />
	<line stroke="black" stroke-opacity="1" x1="504" y1="183" x2="585" y2="121" />
</g>
<g>
	<line stroke="black" stroke-opacity="1" x1="666" y1="100" x2="671" y2="106" />
	<line stroke="black" stroke-opacity="1" x1="666" y1="100" x2="672" y2="94" />
	<line stroke-dasharray="4,4" stroke="black" stroke-opacity="1" x1="778" y1="101" x2="666" y2="100" />
</g>
<g>
	<rect fill="none" stroke="black" stroke-width="1" stroke-opacity="1" x="971" y="372" width="70" height="22" />
	<rect fill="none" stroke="black" stroke-width="1" stroke-opacity="1" x="971" y="394" width="178" height="101" />
	<text font-family="Helvetica" font-size="9" fill="black" text-anchor="middle" x="1060" y="406">ServidorInput</text>
	<text font-family="Helvetica" font-size="9" fill="black" text-anchor="middle" x="1060" y="428">&lt;&lt;Java&gt;&gt;</text>
</g>
<g>
	<rect fill="#808080" stroke="none" stroke-opacity="1" x="943" y="597" width="3" height="37" />
	<rect fill="#808080" stroke="none" stroke-opacity="1" x="885" y="631" width="61" height="3" />
	<rect fill="#ffffc0" stroke="black" stroke-width="1" stroke-opacity="1" x="881" y="593" width="62" height="38" />
	<text font-family="Helvetica" font-size="9" fill="black" font-weight="bold" text-anchor="middle" x="912" y="604">DataInput</text>
</g>
<g>
	<rect fill="#808080" stroke="none" stroke-opacity="1" x="595" y="622" width="3" height="61" />
	<rect fill="#808080" stroke="none" stroke-opacity="1" x="501" y="680" width="97" height="3" />
	<rect fill="#ffffc0" stroke="black" stroke-width="1" stroke-opacity="1" x="497" y="618" width="98" height="62" />
	<text font-family="Helvetica" font-size="9" fill="black" text-anchor="middle" x="546" y="629">&lt;&lt;webservice&gt;&gt;</text>
	<text font-family="Helvetica" font-size="9" fill="black" font-weight="bold" text-anchor="middle" x="546" y="652">IMManager</text>
</g>
<g>
	<rect fill="#808080" stroke="none" stroke-opacity="1" x="158" y="366" width="3" height="37" />
	<rect fill="#808080" stroke="none" stroke-opacity="1" x="68" y="400" width="93" height="3" />
	<rect fill="#ffffc0" stroke="black" stroke-width="1" stroke-opacity="1" x="64" y="362" width="94" height="38" />
	<text font-family="Helvetica" font-size="9" fill="black" font-weight="bold" text-anchor="middle" x="111" y="373">ClienteConsola</text>
</g>
<g>
	<rect fill="#808080" stroke="none" stroke-opacity="1" x="573" y="430" width="3" height="37" />
	<rect fill="#808080" stroke="none" stroke-opacity="1" x="439" y="464" width="137" height="3" />
	<rect fill="#ffffc0" stroke="black" stroke-width="1" stroke-opacity="1" x="435" y="426" width="138" height="38" />
	<text font-family="Helvetica" font-size="9" fill="black" font-weight="bold" text-anchor="middle" x="504" y="437">ClienteConsolaVB.NET</text>
</g>
<g>
	<rect fill="#808080" stroke="none" stroke-opacity="1" x="662" y="83" width="3" height="37" />
	<rect fill="#808080" stroke="none" stroke-opacity="1" x="574" y="117" width="91" height="3" />
	<rect fill="#ffffc0" stroke="black" stroke-width="1" stroke-opacity="1" x="570" y="79" width="92" height="38" />
	<text font-family="Helvetica" font-size="9" fill="black" font-weight="bold" text-anchor="middle" x="616" y="90">ClienteRemoto</text>
</g>
<g>
	<rect fill="#808080" stroke="none" stroke-opacity="1" x="138" y="206" width="3" height="37" />
	<rect fill="#808080" stroke="none" stroke-opacity="1" x="72" y="240" width="69" height="3" />
	<rect fill="#ffffc0" stroke="black" stroke-width="1" stroke-opacity="1" x="68" y="202" width="70" height="38" />
	<text font-family="Helvetica" font-size="9" fill="black" font-weight="bold" text-anchor="middle" x="103" y="213">BigBrother</text>
</g>
<g>
	<rect fill="#808080" stroke="none" stroke-opacity="1" x="172" y="545" width="3" height="37" />
	<rect fill="#808080" stroke="none" stroke-opacity="1" x="48" y="579" width="127" height="3" />
	<rect fill="#ffffc0" stroke="black" stroke-width="1" stroke-opacity="1" x="44" y="541" width="128" height="38" />
	<text font-family="Helvetica" font-size="9" fill="black" font-weight="bold" text-anchor="middle" x="108" y="552">ClienteRepresentado</text>
</g>
<g>
	<rect fill="#808080" stroke="none" stroke-opacity="1" x="1007" y="215" width="3" height="37" />
	<rect fill="#808080" stroke="none" stroke-opacity="1" x="911" y="249" width="99" height="3" />
	<rect fill="#ffffc0" stroke="black" stroke-width="1" stroke-opacity="1" x="907" y="211" width="100" height="38" />
	<text font-family="Helvetica" font-size="9" fill="black" font-weight="bold" text-anchor="middle" x="957" y="222">NickInputEnBoo</text>
</g>
<g>
	<line stroke="black" stroke-opacity="1" x1="230" y1="652" x2="222" y2="647" />
	<line stroke="black" stroke-opacity="1" x1="230" y1="652" x2="225" y2="659" />
	<line stroke="black" stroke-opacity="1" x1="173" y1="665" x2="230" y2="652" />
</g>
<g>
	<line stroke="black" stroke-opacity="1" x1="771" y1="630" x2="797" y2="651" />
</g>
<g>
	<line stroke="black" stroke-opacity="1" x1="580" y1="192" x2="573" y2="186" />
	<line stroke="black" stroke-opacity="1" x1="580" y1="192" x2="574" y2="198" />
	<line stroke-dasharray="4,4" stroke="black" stroke-opacity="1" x1="538" y1="197" x2="580" y2="192" />
</g>
<g>
	<line stroke="black" stroke-opacity="1" x1="797" y1="651" x2="796" y2="642" />
	<line stroke="black" stroke-opacity="1" x1="797" y1="651" x2="788" y2="651" />
	<line stroke="black" stroke-opacity="1" x1="771" y1="630" x2="797" y2="651" />
</g>
<g>
	<line stroke="black" stroke-opacity="1" x1="492" y1="226" x2="490" y2="234" />
	<line stroke="black" stroke-opacity="1" x1="492" y1="226" x2="500" y2="227" />
	<line stroke="black" stroke-opacity="1" x1="733" y1="587" x2="492" y2="226" />
</g>
<g>
	<line stroke="black" stroke-opacity="1" x1="493" y1="134" x2="485" y2="138" />
	<line stroke="black" stroke-opacity="1" x1="493" y1="134" x2="497" y2="141" />
	<line stroke="black" stroke-opacity="1" x1="482" y1="183" x2="493" y2="134" />
</g>
<g>
	<line stroke="black" stroke-opacity="1" x1="788" y1="596" x2="880" y2="574" />
</g>
<g>
	<line stroke="black" stroke-opacity="1" x1="492" y1="226" x2="490" y2="234" />
	<line stroke="black" stroke-opacity="1" x1="492" y1="226" x2="500" y2="227" />
	<line stroke="black" stroke-opacity="1" x1="733" y1="587" x2="492" y2="226" />
</g>
<g>
	<line stroke="black" stroke-opacity="1" x1="998" y1="482" x2="989" y2="480" />
	<line stroke="black" stroke-opacity="1" x1="998" y1="482" x2="996" y2="490" />
	<line stroke="black" stroke-opacity="1" x1="880" y1="574" x2="998" y2="482" />
</g>
<g>
	<line stroke="black" stroke-opacity="1" x1="358" y1="98" x2="358" y2="106" />
	<line stroke="black" stroke-opacity="1" x1="358" y1="98" x2="366" y2="97" />
	<line stroke-dasharray="4,4" stroke="black" stroke-opacity="1" x1="453" y1="183" x2="358" y2="98" />
</g>
<g>
	<rect fill="none" stroke="black" stroke-width="1" stroke-opacity="1" x="694" y="271" width="99" height="22" />
	<rect fill="none" stroke="black" stroke-width="1" stroke-opacity="1" x="694" y="293" width="249" height="184" />
	<text font-family="Helvetica" font-size="9" fill="black" text-anchor="middle" x="819" y="305">Servidor</text>
	<text font-family="Helvetica" font-size="9" fill="black" text-anchor="middle" x="819" y="327">&lt;&lt;C#&gt;&gt;</text>
</g>
<g>
	<rect fill="#808080" stroke="none" stroke-opacity="1" x="534" y="188" width="3" height="37" />
	<rect fill="#808080" stroke="none" stroke-opacity="1" x="422" y="222" width="115" height="3" />
	<rect fill="#ffffc0" stroke="black" stroke-width="1" stroke-opacity="1" x="418" y="184" width="116" height="38" />
	<text font-family="Helvetica" font-size="9" fill="black" font-weight="bold" text-anchor="middle" x="476" y="195">ControladorCliente</text>
</g>
<g>
	<rect fill="#808080" stroke="none" stroke-opacity="1" x="401" y="618" width="3" height="37" />
	<rect fill="#808080" stroke="none" stroke-opacity="1" x="235" y="652" width="169" height="3" />
	<rect fill="#ffffc0" stroke="black" stroke-width="1" stroke-opacity="1" x="231" y="614" width="170" height="38" />
	<text font-family="Helvetica" font-size="9" fill="black" font-weight="bold" text-anchor="middle" x="316" y="625">ClienteRepresentadoFacade</text>
</g>
<g>
	<rect fill="#808080" stroke="none" stroke-opacity="1" x="1070" y="444" width="3" height="37" />
	<rect fill="#808080" stroke="none" stroke-opacity="1" x="990" y="478" width="83" height="3" />
	<rect fill="#ffffc0" stroke="black" stroke-width="1" stroke-opacity="1" x="986" y="440" width="84" height="38" />
	<text font-family="Helvetica" font-size="9" fill="black" font-weight="bold" text-anchor="middle" x="1028" y="451">ServidorInput</text>
</g>
<g>
	<rect fill="#808080" stroke="none" stroke-opacity="1" x="784" y="592" width="3" height="37" />
	<rect fill="#808080" stroke="none" stroke-opacity="1" x="710" y="626" width="77" height="3" />
	<rect fill="#ffffc0" stroke="black" stroke-width="1" stroke-opacity="1" x="706" y="588" width="78" height="38" />
	<text font-family="Helvetica" font-size="9" fill="black" font-weight="bold" text-anchor="middle" x="745" y="599">MainWindow</text>
</g>
<g>
	<line stroke="black" stroke-opacity="1" x1="812" y1="388" x2="813" y2="396" />
	<line stroke="black" stroke-opacity="1" x1="812" y1="388" x2="820" y2="386" />
	<line stroke-dasharray="4,4" stroke="black" stroke-opacity="1" x1="860" y1="421" x2="812" y2="388" />
</g>
<g>
	<rect fill="#808080" stroke="none" stroke-opacity="1" x="169" y="664" width="3" height="37" />
	<rect fill="#808080" stroke="none" stroke-opacity="1" x="41" y="698" width="131" height="3" />
	<rect fill="#ffffc0" stroke="black" stroke-width="1" stroke-opacity="1" x="37" y="660" width="132" height="38" />
	<text font-family="Helvetica" font-size="9" fill="black" font-weight="bold" text-anchor="middle" x="103" y="671">ServidorIntermediario</text>
</g>
<g>
	<rect fill="#808080" stroke="none" stroke-opacity="1" x="727" y="157" width="3" height="61" />
	<rect fill="#808080" stroke="none" stroke-opacity="1" x="585" y="215" width="145" height="3" />
	<rect fill="#ffffc0" stroke="black" stroke-width="1" stroke-opacity="1" x="581" y="153" width="146" height="62" />
	<text font-family="Helvetica" font-size="9" fill="black" text-anchor="middle" x="654" y="164">&lt;&lt;interface&gt;&gt;</text>
	<text font-family="Helvetica" font-size="9" fill="black" font-weight="bold" text-anchor="middle" x="654" y="187">IControladorConexiones</text>
</g>
<g>
	<rect fill="#808080" stroke="none" stroke-opacity="1" x="851" y="350" width="3" height="37" />
	<rect fill="#808080" stroke="none" stroke-opacity="1" x="711" y="384" width="143" height="3" />
	<rect fill="#ffffc0" stroke="black" stroke-width="1" stroke-opacity="1" x="707" y="346" width="144" height="38" />
	<text font-family="Helvetica" font-size="9" fill="black" font-weight="bold" text-anchor="middle" x="779" y="357">ControladorConexiones</text>
</g>
<g>
	<rect fill="#808080" stroke="none" stroke-opacity="1" x="862" y="656" width="3" height="37" />
	<rect fill="#808080" stroke="none" stroke-opacity="1" x="784" y="690" width="81" height="3" />
	<rect fill="#ffffc0" stroke="black" stroke-width="1" stroke-opacity="1" x="780" y="652" width="82" height="38" />
	<text font-family="Helvetica" font-size="9" fill="black" font-weight="bold" text-anchor="middle" x="821" y="663">VentanaChat</text>
</g>
<g>
	<rect fill="#808080" stroke="none" stroke-opacity="1" x="917" y="426" width="3" height="37" />
	<rect fill="#808080" stroke="none" stroke-opacity="1" x="865" y="460" width="55" height="3" />
	<rect fill="#ffffc0" stroke="black" stroke-width="1" stroke-opacity="1" x="861" y="422" width="56" height="38" />
	<text font-family="Helvetica" font-size="9" fill="black" font-weight="bold" text-anchor="middle" x="889" y="433">Servidor</text>
</g>
<g>
	<rect fill="#808080" stroke="none" stroke-opacity="1" x="541" y="96" width="3" height="37" />
	<rect fill="#808080" stroke="none" stroke-opacity="1" x="459" y="130" width="85" height="3" />
	<rect fill="#ffffc0" stroke="black" stroke-width="1" stroke-opacity="1" x="455" y="92" width="86" height="38" />
	<text font-family="Helvetica" font-size="9" fill="black" font-weight="bold" text-anchor="middle" x="498" y="103">EventsHelper</text>
</g>
<g>
	<rect fill="#808080" stroke="none" stroke-opacity="1" x="357" y="60" width="3" height="37" />
	<rect fill="#808080" stroke="none" stroke-opacity="1" x="311" y="94" width="49" height="3" />
	<rect fill="#ffffc0" stroke="black" stroke-width="1" stroke-opacity="1" x="307" y="56" width="50" height="38" />
	<text font-family="Helvetica" font-size="9" fill="black" font-weight="bold" text-anchor="middle" x="332" y="67">ICliente</text>
</g>
<g>
	<text font-family="Helvetica" font-size="9" fill="black" x="186" y="604">*</text>
</g>
<g>
	<text font-family="Helvetica" font-size="9" fill="black" x="391" y="141">&lt;&lt;uses&gt;&gt;</text>
</g>
<g>
	<rect fill="#808080" stroke="none" stroke-opacity="1" x="376" y="141" width="3" height="37" />
	<rect fill="#808080" stroke="none" stroke-opacity="1" x="294" y="175" width="85" height="3" />
	<rect fill="#ffffc0" stroke="black" stroke-width="1" stroke-opacity="1" x="290" y="137" width="86" height="38" />
	<text font-family="Helvetica" font-size="9" fill="black" font-weight="bold" text-anchor="middle" x="333" y="148">DummyClient</text>
</g>
</svg>
