<?xml version="1.0" encoding="UTF-8" standalone="no"?>
<!-- Created with Bouml (http://bouml.free.fr/) -->
<!DOCTYPE svg PUBLIC "-//W3C//DTD SVG 1.1//EN" "http://www.w3.org/Graphics/SVG/1.1/DTD/svg11.dtd">
<svg width="998" height="616" version="1.1" xmlns="http://www.w3.org/2000/svg">
<g>
	<line stroke="black" stroke-opacity="1" x1="598" y1="265" x2="601" y2="272" />
	<line stroke="black" stroke-opacity="1" x1="598" y1="265" x2="605" y2="261" />
	<line stroke="black" stroke-opacity="1" x1="756" y1="334" x2="598" y2="265" />
</g>
<g>
	<line stroke="black" stroke-opacity="1" x1="574" y1="265" x2="575" y2="273" />
	<line stroke="black" stroke-opacity="1" x1="574" y1="265" x2="582" y2="263" />
	<line stroke="black" stroke-opacity="1" x1="845" y1="476" x2="574" y2="265" />
</g>
<g>
	<line stroke="black" stroke-opacity="1" x1="157" y1="420" x2="148" y2="421" />
	<line stroke="black" stroke-opacity="1" x1="157" y1="420" x2="158" y2="428" />
	<line stroke-dasharray="4,4" stroke="black" stroke-opacity="1" x1="107" y1="486" x2="157" y2="420" />
</g>
<g>
	<line stroke="black" stroke-opacity="1" x1="547" y1="376" x2="553" y2="370" />
	<line stroke="black" stroke-opacity="1" x1="547" y1="376" x2="541" y2="370" />
	<line stroke="black" stroke-opacity="1" x1="547" y1="265" x2="547" y2="376" />
</g>
<g>
	<line stroke="black" stroke-opacity="1" x1="498" y1="398" x2="492" y2="392" />
	<line stroke="black" stroke-opacity="1" x1="498" y1="398" x2="492" y2="404" />
	<line stroke-dasharray="4,4" stroke="black" stroke-opacity="1" x1="251" y1="398" x2="498" y2="398" />
</g>
<g>
	<line stroke="black" stroke-opacity="1" x1="514" y1="376" x2="417" y2="312" />
	<line stroke="black" stroke-opacity="1" x1="412" y1="309" x2="413" y2="317" />
	<line stroke="black" stroke-opacity="1" x1="412" y1="309" x2="420" y2="307" />
	<line stroke="black" stroke-opacity="1" x1="413" y1="317" x2="420" y2="307" />
</g>
<g>
	<line stroke="black" stroke-opacity="1" x1="659" y1="244" x2="653" y2="238" />
	<line stroke="black" stroke-opacity="1" x1="659" y1="244" x2="653" y2="250" />
	<line stroke="black" stroke-opacity="1" x1="607" y1="244" x2="659" y2="244" />
</g>
<g>
	<line stroke="black" stroke-opacity="1" x1="214" y1="377" x2="332" y2="311" />
	<line stroke="black" stroke-opacity="1" x1="338" y1="309" x2="329" y2="306" />
	<line stroke="black" stroke-opacity="1" x1="338" y1="309" x2="335" y2="317" />
	<line stroke="black" stroke-opacity="1" x1="329" y1="306" x2="335" y2="317" />
</g>
<g>
	<line stroke="black" stroke-opacity="1" x1="750" y1="243" x2="756" y2="249" />
	<line stroke="black" stroke-opacity="1" x1="750" y1="243" x2="756" y2="237" />
	<line stroke-dasharray="4,4" stroke="black" stroke-opacity="1" x1="901" y1="243" x2="750" y2="243" />
</g>
<g>
	<line stroke="black" stroke-opacity="1" x1="574" y1="265" x2="575" y2="273" />
	<line stroke="black" stroke-opacity="1" x1="574" y1="265" x2="582" y2="263" />
	<line stroke="black" stroke-opacity="1" x1="845" y1="476" x2="574" y2="265" />
</g>
<g>
	<line stroke-dasharray="4,4" stroke="black" stroke-opacity="1" x1="622" y1="157" x2="580" y2="136" />
	<line stroke="black" stroke-opacity="1" x1="575" y1="134" x2="577" y2="142" />
	<line stroke="black" stroke-opacity="1" x1="575" y1="134" x2="583" y2="131" />
	<line stroke="black" stroke-opacity="1" x1="577" y1="142" x2="583" y2="131" />
</g>
<g>
	<line stroke="black" stroke-opacity="1" x1="566" y1="265" x2="565" y2="273" />
	<line stroke="black" stroke-opacity="1" x1="566" y1="265" x2="574" y2="265" />
	<line stroke="black" stroke-opacity="1" x1="745" y1="467" x2="566" y2="265" />
</g>
<g>
	<line stroke-dasharray="4,4" stroke="black" stroke-opacity="1" x1="875" y1="476" x2="901" y2="243" />
</g>
<g>
	<line stroke-dasharray="4,4" stroke="black" stroke-opacity="1" x1="177" y1="377" x2="177" y2="283" />
	<line stroke="black" stroke-opacity="1" x1="177" y1="277" x2="171" y2="283" />
	<line stroke="black" stroke-opacity="1" x1="177" y1="277" x2="183" y2="283" />
	<line stroke="black" stroke-opacity="1" x1="171" y1="283" x2="183" y2="283" />
</g>
<g>
	<line stroke-dasharray="4,4" stroke="black" stroke-opacity="1" x1="878" y1="476" x2="958" y2="121" />
</g>
<g>
	<line stroke="black" stroke-opacity="1" x1="547" y1="143" x2="541" y2="149" />
	<line stroke="black" stroke-opacity="1" x1="547" y1="143" x2="553" y2="149" />
	<line stroke-dasharray="4,4" stroke="black" stroke-opacity="1" x1="547" y1="222" x2="547" y2="143" />
</g>
<g>
	<line stroke-dasharray="4,4" stroke="black" stroke-opacity="1" x1="958" y1="121" x2="581" y2="121" />
	<line stroke="black" stroke-opacity="1" x1="575" y1="121" x2="581" y2="127" />
	<line stroke="black" stroke-opacity="1" x1="575" y1="121" x2="581" y2="115" />
	<line stroke="black" stroke-opacity="1" x1="581" y1="127" x2="581" y2="115" />
</g>
<g>
	<rect fill="none" stroke="black" stroke-width="1" stroke-opacity="1" x="445" y="75" width="541" height="524" />
	<text font-family="Helvetica" font-size="9" fill="black" text-anchor="middle" x="472" y="93">Clientes</text>
	<line stroke="black" stroke-opacity="1" x1="445" y1="102" x2="498" y2="102" />
	<line stroke="black" stroke-opacity="1" x1="498" y1="102" x2="512" y2="88" />
	<line stroke="black" stroke-opacity="1" x1="512" y1="88" x2="512" y2="75" />
</g>
<g>
	<rect fill="#808080" stroke="none" stroke-opacity="1" x="746" y="227" width="3" height="37" />
	<rect fill="#808080" stroke="none" stroke-opacity="1" x="664" y="261" width="85" height="3" />
	<rect fill="#ffffc0" stroke="black" stroke-width="1" stroke-opacity="1" x="660" y="223" width="86" height="38" />
	<text font-family="Helvetica" font-size="9" fill="black" font-weight="bold" text-anchor="middle" x="703" y="234">EventsHelper</text>
	<line stroke="black" stroke-opacity="1" x1="660" y1="254" x2="746" y2="254" />
</g>
<g>
	<rect fill="#808080" stroke="none" stroke-opacity="1" x="591" y="381" width="3" height="37" />
	<rect fill="#808080" stroke="none" stroke-opacity="1" x="503" y="415" width="91" height="3" />
	<rect fill="#c0ffc0" stroke="black" stroke-width="1" stroke-opacity="1" x="499" y="377" width="92" height="38" />
	<text font-family="Helvetica" font-size="9" fill="black" font-weight="bold" text-anchor="middle" x="545" y="388">ClienteRemoto</text>
	<line stroke="black" stroke-opacity="1" x1="499" y1="408" x2="591" y2="408" />
</g>
<g>
	<rect fill="none" stroke="black" stroke-width="1" stroke-opacity="1" x="48" y="78" width="264" height="526" />
	<text font-family="Helvetica" font-size="9" fill="black" text-anchor="middle" x="75" y="96">Servidor</text>
	<line stroke="black" stroke-opacity="1" x1="48" y1="105" x2="102" y2="105" />
	<line stroke="black" stroke-opacity="1" x1="102" y1="105" x2="116" y2="91" />
	<line stroke="black" stroke-opacity="1" x1="116" y1="91" x2="116" y2="78" />
</g>
<g>
	<rect fill="#808080" stroke="none" stroke-opacity="1" x="247" y="382" width="3" height="37" />
	<rect fill="#808080" stroke="none" stroke-opacity="1" x="107" y="416" width="143" height="3" />
	<rect fill="#c0ffc0" stroke="black" stroke-width="1" stroke-opacity="1" x="103" y="378" width="144" height="38" />
	<text font-family="Helvetica" font-size="9" fill="black" font-weight="bold" text-anchor="middle" x="175" y="389">ControladorConexiones</text>
	<line stroke="black" stroke-opacity="1" x1="103" y1="409" x2="247" y2="409" />
</g>
<g>
	<rect fill="#808080" stroke="none" stroke-opacity="1" x="571" y="105" width="3" height="37" />
	<rect fill="#808080" stroke="none" stroke-opacity="1" x="525" y="139" width="49" height="3" />
	<rect fill="#ffffc0" stroke="black" stroke-width="1" stroke-opacity="1" x="521" y="101" width="50" height="38" />
	<text font-family="Helvetica" font-size="9" fill="black" font-weight="bold" text-anchor="middle" x="546" y="112">ICliente</text>
	<line stroke="black" stroke-opacity="1" x1="521" y1="132" x2="571" y2="132" />
</g>
<g>
	<line stroke="black" stroke-opacity="1" x1="252" y1="244" x2="258" y2="250" />
	<line stroke="black" stroke-opacity="1" x1="252" y1="244" x2="258" y2="238" />
	<line stroke-dasharray="4,4" stroke="black" stroke-opacity="1" x1="486" y1="244" x2="252" y2="244" />
</g>
<g>
	<line stroke="black" stroke-opacity="1" x1="557" y1="265" x2="554" y2="273" />
	<line stroke="black" stroke-opacity="1" x1="557" y1="265" x2="565" y2="267" />
	<line stroke="black" stroke-opacity="1" x1="651" y1="452" x2="557" y2="265" />
</g>
<g>
	<rect fill="#808080" stroke="none" stroke-opacity="1" x="911" y="481" width="3" height="37" />
	<rect fill="#808080" stroke="none" stroke-opacity="1" x="837" y="515" width="77" height="3" />
	<rect fill="#ededed" stroke="black" stroke-width="1" stroke-opacity="1" x="833" y="477" width="78" height="38" />
	<text font-family="Helvetica" font-size="9" fill="black" font-weight="bold" text-anchor="middle" x="872" y="488">MainWindow</text>
	<line stroke="black" stroke-opacity="1" x1="833" y1="508" x2="911" y2="508" />
</g>
<g>
	<rect fill="#808080" stroke="none" stroke-opacity="1" x="873" y="339" width="3" height="37" />
	<rect fill="#808080" stroke="none" stroke-opacity="1" x="739" y="373" width="137" height="3" />
	<rect fill="#ededed" stroke="black" stroke-width="1" stroke-opacity="1" x="735" y="335" width="138" height="38" />
	<text font-family="Helvetica" font-size="9" fill="black" font-weight="bold" text-anchor="middle" x="804" y="346">ClienteConsolaVB.NET</text>
	<line stroke="black" stroke-opacity="1" x1="735" y1="366" x2="873" y2="366" />
</g>
<g>
	<rect fill="#808080" stroke="none" stroke-opacity="1" x="248" y="215" width="3" height="61" />
	<rect fill="#808080" stroke="none" stroke-opacity="1" x="106" y="273" width="145" height="3" />
	<rect fill="#ffffc0" stroke="black" stroke-width="1" stroke-opacity="1" x="102" y="211" width="146" height="62" />
	<text font-family="Helvetica" font-size="9" fill="black" text-anchor="middle" x="175" y="222">&lt;&lt;interface&gt;&gt;</text>
	<text font-family="Helvetica" font-size="9" fill="black" font-weight="bold" text-anchor="middle" x="175" y="245">IControladorConexiones</text>
	<line stroke="black" stroke-opacity="1" x1="102" y1="265" x2="248" y2="265" />
</g>
<g>
	<rect fill="#808080" stroke="none" stroke-opacity="1" x="118" y="491" width="3" height="37" />
	<rect fill="#808080" stroke="none" stroke-opacity="1" x="66" y="525" width="55" height="3" />
	<rect fill="#ffffc0" stroke="black" stroke-width="1" stroke-opacity="1" x="62" y="487" width="56" height="38" />
	<text font-family="Helvetica" font-size="9" fill="black" font-weight="bold" text-anchor="middle" x="90" y="498">Servidor</text>
	<line stroke="black" stroke-opacity="1" x1="62" y1="518" x2="118" y2="518" />
</g>
<g>
	<rect fill="#808080" stroke="none" stroke-opacity="1" x="603" y="227" width="3" height="37" />
	<rect fill="#808080" stroke="none" stroke-opacity="1" x="491" y="261" width="115" height="3" />
	<rect fill="#ffffc0" stroke="black" stroke-width="1" stroke-opacity="1" x="487" y="223" width="116" height="38" />
	<text font-family="Helvetica" font-size="9" fill="black" font-weight="bold" text-anchor="middle" x="545" y="234">ControladorCliente</text>
	<line stroke="black" stroke-opacity="1" x1="487" y1="254" x2="603" y2="254" />
</g>
<g>
	<rect fill="#808080" stroke="none" stroke-opacity="1" x="810" y="472" width="3" height="37" />
	<rect fill="#808080" stroke="none" stroke-opacity="1" x="720" y="506" width="93" height="3" />
	<rect fill="#ededed" stroke="black" stroke-width="1" stroke-opacity="1" x="716" y="468" width="94" height="38" />
	<text font-family="Helvetica" font-size="9" fill="black" font-weight="bold" text-anchor="middle" x="763" y="479">ClienteConsola</text>
	<line stroke="black" stroke-opacity="1" x1="716" y1="499" x2="810" y2="499" />
</g>
<g>
	<rect fill="#808080" stroke="none" stroke-opacity="1" x="706" y="162" width="3" height="37" />
	<rect fill="#808080" stroke="none" stroke-opacity="1" x="624" y="196" width="85" height="3" />
	<rect fill="#ffffc0" stroke="black" stroke-width="1" stroke-opacity="1" x="620" y="158" width="86" height="38" />
	<text font-family="Helvetica" font-size="9" fill="black" font-weight="bold" text-anchor="middle" x="663" y="169">DummyClient</text>
	<line stroke="black" stroke-opacity="1" x1="620" y1="189" x2="706" y2="189" />
</g>
<g>
	<rect fill="#808080" stroke="none" stroke-opacity="1" x="696" y="457" width="3" height="37" />
	<rect fill="#808080" stroke="none" stroke-opacity="1" x="630" y="491" width="69" height="3" />
	<rect fill="#ededed" stroke="black" stroke-width="1" stroke-opacity="1" x="626" y="453" width="70" height="38" />
	<text font-family="Helvetica" font-size="9" fill="black" font-weight="bold" text-anchor="middle" x="661" y="464">BigBrother</text>
	<line stroke="black" stroke-opacity="1" x1="626" y1="484" x2="696" y2="484" />
</g>
<g>
	<rect fill="#808080" stroke="none" stroke-opacity="1" x="441" y="271" width="3" height="37" />
	<rect fill="#808080" stroke="none" stroke-opacity="1" x="319" y="305" width="125" height="3" />
	<rect fill="#c0ffc0" stroke="black" stroke-width="1" stroke-opacity="1" x="315" y="267" width="126" height="38" />
	<text font-family="Helvetica" font-size="9" fill="black" font-weight="bold" text-anchor="middle" x="378" y="278">MarshalByRefObject</text>
	<line stroke="black" stroke-opacity="1" x1="315" y1="298" x2="441" y2="298" />
</g>
<g>
	<text font-family="Helvetica" font-size="9" fill="black" x="491" y="176">&lt;&lt;uses&gt;&gt;</text>
</g>
</svg>
